<svg width="24" height="24" viewBox="0 0 24 24" fill="none" xmlns="http://www.w3.org/2000/svg">
<g clip-path="url(#clip0_4979_5713)">
<path d="M19.915 13.0279C19.527 12.5379 19.638 12.3199 19.915 11.8819C19.92 11.8769 23.123 7.45094 23.453 5.94994L23.455 5.94894C23.619 5.40194 23.455 4.99994 22.662 4.99994H20.038C19.37 4.99994 19.062 5.34494 18.897 5.73094C18.897 5.73094 17.561 8.92894 15.671 11.0019C15.061 11.6009 14.779 11.7929 14.446 11.7929C14.282 11.7929 14.027 11.6009 14.027 11.0539V5.94894C14.027 5.29294 13.84 4.99994 13.287 4.99994H9.161C8.742 4.99994 8.493 5.30594 8.493 5.59094C8.493 6.21294 9.438 6.35594 9.536 8.10594V11.9029C9.536 12.7349 9.385 12.8879 9.05 12.8879C8.158 12.8879 5.993 9.67694 4.71 6.00194C4.451 5.28894 4.198 5.00094 3.525 5.00094H0.9C0.151 5.00094 0 5.34594 0 5.73194C0 6.41394 0.892 9.80494 4.148 14.2849C6.318 17.3429 9.374 18.9999 12.154 18.9999C13.825 18.9999 14.029 18.6319 14.029 17.9989C14.029 15.0769 13.878 14.8009 14.715 14.8009C15.103 14.8009 15.771 14.9929 17.331 16.4679C19.114 18.2169 19.407 18.9999 20.405 18.9999H23.029C23.777 18.9999 24.156 18.6319 23.938 17.9059C23.439 16.3789 20.067 13.2379 19.915 13.0279Z" fill="#7984C0"/>
</g>
<defs>
<clipPath id="clip0_4979_5713">
<rect width="24" height="24" fill="white"/>
</clipPath>
</defs>
</svg>
