<svg width="27" height="25" viewBox="0 0 27 25" fill="none" xmlns="http://www.w3.org/2000/svg">
<path d="M23.66 9.084C25.184 9.084 26.3 7.968 26.3 6.384V6.096C26.3 4.512 25.184 3.396 23.72 3.396C22.856 3.396 22.148 3.756 21.716 4.38C21.776 2.04 22.544 1.32 23.72 1.32C24.488 1.32 24.92 1.752 25.16 2.34H26.048C25.808 1.332 24.992 0.516 23.72 0.516C22.064 0.516 20.9 1.68 20.9 4.776V5.544C20.9 8.004 21.98 9.084 23.66 9.084ZM21.764 6.264V5.976C21.764 4.92 22.496 4.188 23.66 4.188C24.704 4.188 25.436 4.92 25.436 6.096V6.384C25.436 7.56 24.704 8.292 23.66 8.292C22.496 8.292 21.764 7.56 21.764 6.264Z" fill="#7984C0"/>
<g clip-path="url(#clip0_4945_5423)">
<path d="M16.3832 8.325C14.1832 6.825 11.4665 7.525 9.99985 9.24166C8.53319 7.525 5.81652 6.81666 3.61652 8.325C2.44985 9.125 1.71652 10.475 1.66652 11.9C1.54985 15.1333 4.41652 17.725 8.79152 21.7L8.87485 21.775C9.50819 22.35 10.4832 22.35 11.1165 21.7667L11.2082 21.6833C15.5832 17.7167 18.4415 15.125 18.3332 11.8917C18.2832 10.475 17.5499 9.125 16.3832 8.325ZM10.0832 20.4583L9.99985 20.5417L9.91652 20.4583C5.94985 16.8667 3.33319 14.4917 3.33319 12.0833C3.33319 10.4167 4.58319 9.16666 6.24985 9.16666C7.53319 9.16666 8.78319 9.99166 9.22485 11.1333H10.7832C11.2165 9.99166 12.4665 9.16666 13.7499 9.16666C15.4165 9.16666 16.6665 10.4167 16.6665 12.0833C16.6665 14.4917 14.0499 16.8667 10.0832 20.4583Z" fill="#7984C0"/>
</g>
<defs>
<clipPath id="clip0_4945_5423">
<rect width="20" height="20" fill="white" transform="translate(0 5)"/>
</clipPath>
</defs>
</svg>
