<svg width="136" height="28" viewBox="0 0 136 28" fill="none" xmlns="http://www.w3.org/2000/svg">
<path d="M31.516 10.5875H22.466C20.4549 1.50477 5.3717 10.5872 9.39389 17.8536C12.4106 21.4867 18.779 20.2756 20.4549 17.8536H30.5104C20.0527 32.3862 6.37725 27.8447 3.36059 25.1199C0.343952 23.3033 -4.88492 8.77087 10.3994 1.50456C25.6838 -3.58186 30.8456 5.44048 31.516 10.5875Z" fill="#121720"/>
<path d="M31.5156 28L36.4009 0H45.1943L40.309 21.6774H65.7122C71.9653 21.6774 72.2259 16.8602 71.5745 14.4516H69.6204L74.5056 9.93548L80.3679 14.4516H78.4138C78.4138 24.5677 69.9461 27.6989 65.7122 28H31.5156Z" fill="#121720"/>
<path d="M49.1024 14.4516H51.0565C51.8382 3.6129 61.1527 0.301075 65.7122 0H103.817V6.32258L88.1843 22.5806H100.886L99.9088 28H78.4138V22.5806L94.0465 7.22581H65.7122C57.1142 7.22581 56.2674 12.043 56.9188 14.4516H59.8499L53.9877 18.9677L49.1024 14.4516Z" fill="#121720"/>
<path fill-rule="evenodd" clip-rule="evenodd" d="M100.109 28L117.188 0H128.929L135.333 28H124.659V23.3333H112.918L109.716 28H100.109ZM116.12 17.7333L121.457 8.4L123.592 17.7333H116.12Z" fill="#121720"/>
</svg>
