<svg width="1440" height="60" viewBox="0 0 1440 60" fill="none" xmlns="http://www.w3.org/2000/svg">
<rect width="1440" height="60" fill="#121720"/>
<g clip-path="url(#clip0_135_2785)">
<path d="M167.76 37.6033L162.182 32.0246C163.093 30.8651 163.637 29.4042 163.637 27.8185C163.637 24.0587 160.578 21 156.818 21C153.059 21 150 24.0587 150 27.8185C150 31.5782 153.059 34.6369 156.818 34.6369C158.404 34.6369 159.865 34.0928 161.025 33.1816L166.603 38.7603C166.763 38.9201 166.972 39 167.182 39C167.391 39 167.601 38.9201 167.76 38.7603C168.08 38.4409 168.08 37.9228 167.76 37.6033ZM151.636 27.8185C151.636 24.961 153.961 22.6364 156.818 22.6364C159.676 22.6364 162.001 24.961 162.001 27.8185C162.001 30.6759 159.676 33.0005 156.818 33.0005C153.961 33.0005 151.636 30.6759 151.636 27.8185Z" fill="white"/>
</g>
<g opacity="0.5" clip-path="url(#clip1_135_2785)">
<path d="M144.8 37H146.2V24.28H153.8V37H155.2V23H144.8V37ZM162.504 37.14C165.164 37.14 166.904 35.4 166.904 32.34V31.66C166.904 28.58 165.184 26.86 162.504 26.86C159.844 26.86 158.104 28.6 158.104 31.66V32.34C158.104 35.42 159.824 37.14 162.504 37.14ZM162.504 35.94C160.704 35.94 159.464 34.7 159.464 32.34V31.66C159.464 29.28 160.684 28.06 162.504 28.06C164.304 28.06 165.544 29.3 165.544 31.66V32.34C165.544 34.72 164.324 35.94 162.504 35.94ZM169.7 37H171.54L176.54 28.5H176.58V37H177.9V27H176.06L171.06 35.5H171.02V27H169.7V37ZM184.902 37.14C187.262 37.14 188.602 35.8 188.902 34H187.542C187.242 35.18 186.482 35.94 185.002 35.94C183.322 35.94 182.062 34.68 182.062 32.24V31.56C182.062 29.3 183.302 28.06 185.002 28.06C186.482 28.06 187.242 28.82 187.542 29.8H188.902C188.602 28.2 187.262 26.86 184.902 26.86C182.422 26.86 180.702 28.58 180.702 31.56V32.24C180.702 35.46 182.382 37.14 184.902 37.14ZM191.399 37H192.719V32.4H194.519L197.799 37H199.399L195.579 31.76L198.999 27H197.439L194.519 31.2H192.719V27H191.399V37ZM208.635 37H209.955V28.2H213.295V27H205.295V28.2H208.635V37ZM218.813 37.14C221.473 37.14 223.213 35.4 223.213 32.34V31.66C223.213 28.58 221.493 26.86 218.813 26.86C216.153 26.86 214.413 28.6 214.413 31.66V32.34C214.413 35.42 216.133 37.14 218.813 37.14ZM218.813 35.94C217.013 35.94 215.773 34.7 215.773 32.34V31.66C215.773 29.28 216.993 28.06 218.813 28.06C220.613 28.06 221.853 29.3 221.853 31.66V32.34C221.853 34.72 220.633 35.94 218.813 35.94ZM226.009 37H230.209C232.529 37 233.609 35.92 233.609 34.14C233.609 33.08 233.029 32.24 231.949 31.82V31.78C232.749 31.38 233.209 30.62 233.209 29.74C233.209 28.08 232.129 27 229.809 27H226.009V37ZM231.849 29.76C231.849 30.76 231.269 31.34 229.709 31.34H227.329V28.2H229.709C231.269 28.2 231.849 28.78 231.849 29.76ZM232.249 34.12C232.249 35.22 231.669 35.8 230.109 35.8H227.329V32.46H230.109C231.669 32.46 232.249 33.04 232.249 34.12ZM238.999 37.14C240.419 37.14 241.659 36.48 242.459 35.3H242.499L242.659 37H243.699V30.4C243.699 28.08 242.479 26.86 239.899 26.86C237.479 26.86 236.199 28.14 236.099 29.6H237.459C237.559 28.72 238.279 28.1 239.899 28.1C241.659 28.1 242.379 28.82 242.379 30.4V31.14H239.799C236.939 31.14 235.699 32.34 235.699 34.24C235.699 36.04 236.799 37.14 238.999 37.14ZM239.099 35.9C237.699 35.9 237.059 35.26 237.059 34.24C237.059 33.04 237.839 32.26 239.899 32.26H242.379V32.8C242.379 34.62 241.019 35.9 239.099 35.9ZM247.005 41H248.325V35.6H248.365C249.065 36.62 250.145 37.14 251.585 37.14C253.885 37.14 255.605 35.42 255.605 32.34V31.66C255.605 28.54 253.925 26.86 251.585 26.86C250.145 26.86 249.125 27.36 248.245 28.5H248.205L248.045 27H247.005V41ZM251.285 35.94C249.565 35.94 248.325 34.7 248.325 32.34V31.66C248.325 29.26 249.525 28.06 251.285 28.06C253.005 28.06 254.245 29.3 254.245 31.66V32.34C254.245 34.74 253.045 35.94 251.285 35.94ZM261.011 37.14C262.431 37.14 263.671 36.48 264.471 35.3H264.511L264.671 37H265.711V30.4C265.711 28.08 264.491 26.86 261.911 26.86C259.491 26.86 258.211 28.14 258.111 29.6H259.471C259.571 28.72 260.291 28.1 261.911 28.1C263.671 28.1 264.391 28.82 264.391 30.4V31.14H261.811C258.951 31.14 257.711 32.34 257.711 34.24C257.711 36.04 258.811 37.14 261.011 37.14ZM261.111 35.9C259.711 35.9 259.071 35.26 259.071 34.24C259.071 33.04 259.851 32.26 261.911 32.26H264.391V32.8C264.391 34.62 263.031 35.9 261.111 35.9ZM268.816 40H270.016L271.416 35.3H269.816L268.816 40ZM283.933 37.14C286.553 37.14 288.312 35.38 288.312 32.44V31.76C288.312 28.8 286.573 27.06 284.173 27.06C282.693 27.06 281.513 27.68 280.833 28.8H280.793C280.952 26.92 281.413 25.78 282.393 25.14C283.673 24.32 285.513 24.82 287.513 24.08V22.86C284.953 23.66 283.452 23.1 281.793 24.08C279.953 25.18 279.513 27.62 279.513 30.66V31.74C279.513 35.44 281.213 37.14 283.933 37.14ZM283.933 35.94C282.113 35.94 280.873 34.7 280.873 32.44V31.76C280.873 29.46 282.073 28.26 283.933 28.26C285.733 28.26 286.953 29.48 286.953 31.76V32.44C286.953 34.72 285.733 35.94 283.933 35.94ZM291.106 41H292.426V35.6H292.466C293.166 36.62 294.246 37.14 295.686 37.14C297.986 37.14 299.706 35.42 299.706 32.34V31.66C299.706 28.54 298.026 26.86 295.686 26.86C294.246 26.86 293.226 27.36 292.346 28.5H292.306L292.146 27H291.106V41ZM295.386 35.94C293.666 35.94 292.426 34.7 292.426 32.34V31.66C292.426 29.26 293.626 28.06 295.386 28.06C297.106 28.06 298.346 29.3 298.346 31.66V32.34C298.346 34.74 297.146 35.94 295.386 35.94ZM306.213 37.14C308.453 37.14 309.933 36.1 310.413 34.2H309.053C308.593 35.36 307.653 35.94 306.213 35.94C304.333 35.94 303.273 34.66 303.273 32.36H310.513V31.76C310.513 28.58 308.793 26.86 306.213 26.86C303.653 26.86 301.913 28.6 301.913 31.66V32.34C301.913 35.42 303.633 37.14 306.213 37.14ZM306.213 28.06C307.893 28.06 309.033 29.1 309.153 31.24H303.273C303.393 29.18 304.513 28.06 306.213 28.06ZM313.313 37H314.633V32.5H320.193V37H321.513V27H320.193V31.3H314.633V27H313.313V37ZM323.615 39.6H324.895V37H332.635V39.6H333.915V35.8H332.615V27H325.815V30C325.815 33.22 325.575 34.46 324.715 35.8H323.615V39.6ZM326.195 35.8V35.76C326.915 34.24 327.095 32.88 327.095 30V28.2H331.295V35.8H326.195ZM338.902 37.14C340.322 37.14 341.562 36.48 342.362 35.3H342.402L342.562 37H343.602V30.4C343.602 28.08 342.382 26.86 339.802 26.86C337.382 26.86 336.102 28.14 336.002 29.6H337.362C337.462 28.72 338.182 28.1 339.802 28.1C341.562 28.1 342.282 28.82 342.282 30.4V31.14H339.702C336.842 31.14 335.602 32.34 335.602 34.24C335.602 36.04 336.702 37.14 338.902 37.14ZM339.002 35.9C337.602 35.9 336.962 35.26 336.962 34.24C336.962 33.04 337.742 32.26 339.802 32.26H342.282V32.8C342.282 34.62 340.922 35.9 339.002 35.9ZM351.907 37H353.747L358.747 28.5H358.787V37H360.107V27H358.267L353.267 35.5H353.227V27H351.907V37ZM362.209 37.14H362.509C365.489 37.14 365.529 34.1 365.529 29.8V28.2H369.689V37H371.009V27H364.209V29.8C364.209 33.6 364.169 35.94 362.509 35.94H362.209V37.14ZM374.407 37H376.247L381.247 28.5H381.287V37H382.607V27H380.767L375.767 35.5H375.727V27H374.407V37ZM391.009 37H392.329V28.2H397.489V37H398.809V27H391.009V37ZM402.2 41H403.52V35.6H403.56C404.26 36.62 405.34 37.14 406.78 37.14C409.08 37.14 410.8 35.42 410.8 32.34V31.66C410.8 28.54 409.12 26.86 406.78 26.86C405.34 26.86 404.32 27.36 403.44 28.5H403.4L403.24 27H402.2V41ZM406.48 35.94C404.76 35.94 403.52 34.7 403.52 32.34V31.66C403.52 29.26 404.72 28.06 406.48 28.06C408.2 28.06 409.44 29.3 409.44 31.66V32.34C409.44 34.74 408.24 35.94 406.48 35.94ZM417.406 37.14C420.066 37.14 421.806 35.4 421.806 32.34V31.66C421.806 28.58 420.086 26.86 417.406 26.86C414.746 26.86 413.006 28.6 413.006 31.66V32.34C413.006 35.42 414.726 37.14 417.406 37.14ZM417.406 35.94C415.606 35.94 414.366 34.7 414.366 32.34V31.66C414.366 29.28 415.586 28.06 417.406 28.06C419.206 28.06 420.446 29.3 420.446 31.66V32.34C420.446 34.72 419.226 35.94 417.406 35.94ZM423.107 39.6H424.387V37H432.127V39.6H433.407V35.8H432.107V27H425.307V30C425.307 33.22 425.067 34.46 424.207 35.8H423.107V39.6ZM425.687 35.8V35.76C426.407 34.24 426.587 32.88 426.587 30V28.2H430.787V35.8H425.687ZM438.394 37.14C439.814 37.14 441.054 36.48 441.854 35.3H441.894L442.054 37H443.094V30.4C443.094 28.08 441.874 26.86 439.294 26.86C436.874 26.86 435.594 28.14 435.494 29.6H436.854C436.954 28.72 437.674 28.1 439.294 28.1C441.054 28.1 441.774 28.82 441.774 30.4V31.14H439.194C436.334 31.14 435.094 32.34 435.094 34.24C435.094 36.04 436.194 37.14 438.394 37.14ZM438.494 35.9C437.094 35.9 436.454 35.26 436.454 34.24C436.454 33.04 437.234 32.26 439.294 32.26H441.774V32.8C441.774 34.62 440.414 35.9 438.494 35.9ZM446.399 37H450.599C452.919 37 453.999 35.92 453.999 34.14C453.999 33.08 453.419 32.24 452.339 31.82V31.78C453.139 31.38 453.599 30.62 453.599 29.74C453.599 28.08 452.519 27 450.199 27H446.399V37ZM452.239 29.76C452.239 30.76 451.659 31.34 450.099 31.34H447.719V28.2H450.099C451.659 28.2 452.239 28.78 452.239 29.76ZM452.639 34.12C452.639 35.22 452.059 35.8 450.499 35.8H447.719V32.46H450.499C452.059 32.46 452.639 33.04 452.639 34.12ZM464.67 39.6H465.99V35.8H464.49V27H463.17V35.8H458.11V27H456.79V37H464.67V39.6ZM470.991 37.14C472.411 37.14 473.651 36.48 474.451 35.3H474.491L474.651 37H475.691V30.4C475.691 28.08 474.471 26.86 471.891 26.86C469.471 26.86 468.191 28.14 468.091 29.6H469.451C469.551 28.72 470.271 28.1 471.891 28.1C473.651 28.1 474.371 28.82 474.371 30.4V31.14H471.791C468.931 31.14 467.691 32.34 467.691 34.24C467.691 36.04 468.791 37.14 470.991 37.14ZM471.091 35.9C469.691 35.9 469.051 35.26 469.051 34.24C469.051 33.04 469.831 32.26 471.891 32.26H474.371V32.8C474.371 34.62 473.011 35.9 471.091 35.9ZM480.297 37.14C480.937 37.14 481.397 36.68 481.397 36.04C481.397 35.4 480.937 34.94 480.297 34.94C479.657 34.94 479.197 35.4 479.197 36.04C479.197 36.68 479.657 37.14 480.297 37.14ZM486.293 37.14C486.933 37.14 487.393 36.68 487.393 36.04C487.393 35.4 486.933 34.94 486.293 34.94C485.653 34.94 485.193 35.4 485.193 36.04C485.193 36.68 485.653 37.14 486.293 37.14ZM492.289 37.14C492.929 37.14 493.389 36.68 493.389 36.04C493.389 35.4 492.929 34.94 492.289 34.94C491.649 34.94 491.189 35.4 491.189 36.04C491.189 36.68 491.649 37.14 492.289 37.14ZM497.085 37H498.485V24.28H506.085V37H507.485V23H497.085V37ZM514.789 37.14C517.449 37.14 519.189 35.4 519.189 32.34V31.66C519.189 28.58 517.469 26.86 514.789 26.86C512.129 26.86 510.389 28.6 510.389 31.66V32.34C510.389 35.42 512.109 37.14 514.789 37.14ZM514.789 35.94C512.989 35.94 511.749 34.7 511.749 32.34V31.66C511.749 29.28 512.969 28.06 514.789 28.06C516.589 28.06 517.829 29.3 517.829 31.66V32.34C517.829 34.72 516.609 35.94 514.789 35.94ZM521.985 37H523.825L528.825 28.5H528.865V37H530.185V27H528.345L523.345 35.5H523.305V27H521.985V37ZM537.187 37.14C539.547 37.14 540.887 35.8 541.187 34H539.827C539.527 35.18 538.767 35.94 537.287 35.94C535.607 35.94 534.347 34.68 534.347 32.24V31.56C534.347 29.3 535.587 28.06 537.287 28.06C538.767 28.06 539.527 28.82 539.827 29.8H541.187C540.887 28.2 539.547 26.86 537.187 26.86C534.707 26.86 532.987 28.58 532.987 31.56V32.24C532.987 35.46 534.667 37.14 537.187 37.14ZM543.684 37H545.004V32.4H546.804L550.084 37H551.684L547.864 31.76L551.284 27H549.724L546.804 31.2H545.004V27H543.684V37ZM560.92 37H562.24V28.2H565.58V27H557.58V28.2H560.92V37ZM571.098 37.14C573.758 37.14 575.498 35.4 575.498 32.34V31.66C575.498 28.58 573.778 26.86 571.098 26.86C568.438 26.86 566.698 28.6 566.698 31.66V32.34C566.698 35.42 568.418 37.14 571.098 37.14ZM571.098 35.94C569.298 35.94 568.058 34.7 568.058 32.34V31.66C568.058 29.28 569.278 28.06 571.098 28.06C572.898 28.06 574.138 29.3 574.138 31.66V32.34C574.138 34.72 572.918 35.94 571.098 35.94ZM578.294 37H582.494C584.814 37 585.894 35.92 585.894 34.14C585.894 33.08 585.314 32.24 584.234 31.82V31.78C585.034 31.38 585.494 30.62 585.494 29.74C585.494 28.08 584.414 27 582.094 27H578.294V37ZM584.134 29.76C584.134 30.76 583.554 31.34 581.994 31.34H579.614V28.2H581.994C583.554 28.2 584.134 28.78 584.134 29.76ZM584.534 34.12C584.534 35.22 583.954 35.8 582.394 35.8H579.614V32.46H582.394C583.954 32.46 584.534 33.04 584.534 34.12ZM591.284 37.14C592.704 37.14 593.944 36.48 594.744 35.3H594.784L594.944 37H595.984V30.4C595.984 28.08 594.764 26.86 592.184 26.86C589.764 26.86 588.484 28.14 588.384 29.6H589.744C589.844 28.72 590.564 28.1 592.184 28.1C593.944 28.1 594.664 28.82 594.664 30.4V31.14H592.084C589.224 31.14 587.984 32.34 587.984 34.24C587.984 36.04 589.084 37.14 591.284 37.14ZM591.384 35.9C589.984 35.9 589.344 35.26 589.344 34.24C589.344 33.04 590.124 32.26 592.184 32.26H594.664V32.8C594.664 34.62 593.304 35.9 591.384 35.9ZM599.29 41H600.61V35.6H600.65C601.35 36.62 602.43 37.14 603.87 37.14C606.17 37.14 607.89 35.42 607.89 32.34V31.66C607.89 28.54 606.21 26.86 603.87 26.86C602.43 26.86 601.41 27.36 600.53 28.5H600.49L600.33 27H599.29V41ZM603.57 35.94C601.85 35.94 600.61 34.7 600.61 32.34V31.66C600.61 29.26 601.81 28.06 603.57 28.06C605.29 28.06 606.53 29.3 606.53 31.66V32.34C606.53 34.74 605.33 35.94 603.57 35.94ZM613.296 37.14C614.716 37.14 615.956 36.48 616.756 35.3H616.796L616.956 37H617.996V30.4C617.996 28.08 616.776 26.86 614.196 26.86C611.776 26.86 610.496 28.14 610.396 29.6H611.756C611.856 28.72 612.576 28.1 614.196 28.1C615.956 28.1 616.676 28.82 616.676 30.4V31.14H614.096C611.236 31.14 609.996 32.34 609.996 34.24C609.996 36.04 611.096 37.14 613.296 37.14ZM613.396 35.9C611.996 35.9 611.356 35.26 611.356 34.24C611.356 33.04 612.136 32.26 614.196 32.26H616.676V32.8C616.676 34.62 615.316 35.9 613.396 35.9ZM621.102 40H622.302L623.702 35.3H622.102L621.102 40ZM636.218 37.14C638.838 37.14 640.598 35.38 640.598 32.44V31.76C640.598 28.8 638.858 27.06 636.458 27.06C634.978 27.06 633.798 27.68 633.118 28.8H633.078C633.238 26.92 633.698 25.78 634.678 25.14C635.958 24.32 637.798 24.82 639.798 24.08V22.86C637.238 23.66 635.738 23.1 634.078 24.08C632.238 25.18 631.798 27.62 631.798 30.66V31.74C631.798 35.44 633.498 37.14 636.218 37.14ZM636.218 35.94C634.398 35.94 633.158 34.7 633.158 32.44V31.76C633.158 29.46 634.358 28.26 636.218 28.26C638.018 28.26 639.238 29.48 639.238 31.76V32.44C639.238 34.72 638.018 35.94 636.218 35.94ZM643.391 41H644.711V35.6H644.751C645.451 36.62 646.531 37.14 647.971 37.14C650.271 37.14 651.991 35.42 651.991 32.34V31.66C651.991 28.54 650.311 26.86 647.971 26.86C646.531 26.86 645.511 27.36 644.631 28.5H644.591L644.431 27H643.391V41ZM647.671 35.94C645.951 35.94 644.711 34.7 644.711 32.34V31.66C644.711 29.26 645.911 28.06 647.671 28.06C649.391 28.06 650.631 29.3 650.631 31.66V32.34C650.631 34.74 649.431 35.94 647.671 35.94ZM658.498 37.14C660.738 37.14 662.218 36.1 662.698 34.2H661.338C660.878 35.36 659.938 35.94 658.498 35.94C656.618 35.94 655.558 34.66 655.558 32.36H662.798V31.76C662.798 28.58 661.078 26.86 658.498 26.86C655.938 26.86 654.198 28.6 654.198 31.66V32.34C654.198 35.42 655.918 37.14 658.498 37.14ZM658.498 28.06C660.178 28.06 661.318 29.1 661.438 31.24H655.558C655.678 29.18 656.798 28.06 658.498 28.06ZM665.598 37H666.918V32.5H672.478V37H673.798V27H672.478V31.3H666.918V27H665.598V37ZM675.9 39.6H677.18V37H684.92V39.6H686.2V35.8H684.9V27H678.1V30C678.1 33.22 677.86 34.46 677 35.8H675.9V39.6ZM678.48 35.8V35.76C679.2 34.24 679.38 32.88 679.38 30V28.2H683.58V35.8H678.48ZM691.187 37.14C692.607 37.14 693.847 36.48 694.647 35.3H694.687L694.847 37H695.887V30.4C695.887 28.08 694.667 26.86 692.087 26.86C689.667 26.86 688.387 28.14 688.287 29.6H689.647C689.747 28.72 690.467 28.1 692.087 28.1C693.847 28.1 694.567 28.82 694.567 30.4V31.14H691.987C689.127 31.14 687.887 32.34 687.887 34.24C687.887 36.04 688.987 37.14 691.187 37.14ZM691.287 35.9C689.887 35.9 689.247 35.26 689.247 34.24C689.247 33.04 690.027 32.26 692.087 32.26H694.567V32.8C694.567 34.62 693.207 35.9 691.287 35.9ZM704.192 37H706.032L711.032 28.5H711.072V37H712.392V27H710.552L705.552 35.5H705.512V27H704.192V37ZM714.494 37.14H714.794C717.774 37.14 717.814 34.1 717.814 29.8V28.2H721.974V37H723.294V27H716.494V29.8C716.494 33.6 716.454 35.94 714.794 35.94H714.494V37.14ZM726.692 37H728.532L733.532 28.5H733.572V37H734.892V27H733.052L728.052 35.5H728.012V27H726.692V37ZM743.294 37H744.614V28.2H749.774V37H751.094V27H743.294V37ZM754.485 41H755.805V35.6H755.845C756.545 36.62 757.625 37.14 759.065 37.14C761.365 37.14 763.085 35.42 763.085 32.34V31.66C763.085 28.54 761.405 26.86 759.065 26.86C757.625 26.86 756.605 27.36 755.725 28.5H755.685L755.525 27H754.485V41ZM758.765 35.94C757.045 35.94 755.805 34.7 755.805 32.34V31.66C755.805 29.26 757.005 28.06 758.765 28.06C760.485 28.06 761.725 29.3 761.725 31.66V32.34C761.725 34.74 760.525 35.94 758.765 35.94ZM769.691 37.14C772.351 37.14 774.091 35.4 774.091 32.34V31.66C774.091 28.58 772.371 26.86 769.691 26.86C767.031 26.86 765.291 28.6 765.291 31.66V32.34C765.291 35.42 767.011 37.14 769.691 37.14ZM769.691 35.94C767.891 35.94 766.651 34.7 766.651 32.34V31.66C766.651 29.28 767.871 28.06 769.691 28.06C771.491 28.06 772.731 29.3 772.731 31.66V32.34C772.731 34.72 771.511 35.94 769.691 35.94ZM775.392 39.6H776.672V37H784.412V39.6H785.692V35.8H784.392V27H777.592V30C777.592 33.22 777.352 34.46 776.492 35.8H775.392V39.6ZM777.972 35.8V35.76C778.692 34.24 778.872 32.88 778.872 30V28.2H783.072V35.8H777.972ZM790.679 37.14C792.099 37.14 793.339 36.48 794.139 35.3H794.179L794.339 37H795.379V30.4C795.379 28.08 794.159 26.86 791.579 26.86C789.159 26.86 787.879 28.14 787.779 29.6H789.139C789.239 28.72 789.959 28.1 791.579 28.1C793.339 28.1 794.059 28.82 794.059 30.4V31.14H791.479C788.619 31.14 787.379 32.34 787.379 34.24C787.379 36.04 788.479 37.14 790.679 37.14ZM790.779 35.9C789.379 35.9 788.739 35.26 788.739 34.24C788.739 33.04 789.519 32.26 791.579 32.26H794.059V32.8C794.059 34.62 792.699 35.9 790.779 35.9ZM798.684 37H802.884C805.204 37 806.284 35.92 806.284 34.14C806.284 33.08 805.704 32.24 804.624 31.82V31.78C805.424 31.38 805.884 30.62 805.884 29.74C805.884 28.08 804.804 27 802.484 27H798.684V37ZM804.524 29.76C804.524 30.76 803.944 31.34 802.384 31.34H800.004V28.2H802.384C803.944 28.2 804.524 28.78 804.524 29.76ZM804.924 34.12C804.924 35.22 804.344 35.8 802.784 35.8H800.004V32.46H802.784C804.344 32.46 804.924 33.04 804.924 34.12ZM816.955 39.6H818.275V35.8H816.775V27H815.455V35.8H810.395V27H809.075V37H816.955V39.6ZM823.277 37.14C824.697 37.14 825.937 36.48 826.737 35.3H826.777L826.937 37H827.977V30.4C827.977 28.08 826.757 26.86 824.177 26.86C821.757 26.86 820.477 28.14 820.377 29.6H821.737C821.837 28.72 822.557 28.1 824.177 28.1C825.937 28.1 826.657 28.82 826.657 30.4V31.14H824.077C821.217 31.14 819.977 32.34 819.977 34.24C819.977 36.04 821.077 37.14 823.277 37.14ZM823.377 35.9C821.977 35.9 821.337 35.26 821.337 34.24C821.337 33.04 822.117 32.26 824.177 32.26H826.657V32.8C826.657 34.62 825.297 35.9 823.377 35.9ZM832.582 37.14C833.222 37.14 833.682 36.68 833.682 36.04C833.682 35.4 833.222 34.94 832.582 34.94C831.942 34.94 831.482 35.4 831.482 36.04C831.482 36.68 831.942 37.14 832.582 37.14ZM838.578 37.14C839.218 37.14 839.678 36.68 839.678 36.04C839.678 35.4 839.218 34.94 838.578 34.94C837.938 34.94 837.478 35.4 837.478 36.04C837.478 36.68 837.938 37.14 838.578 37.14ZM844.574 37.14C845.214 37.14 845.674 36.68 845.674 36.04C845.674 35.4 845.214 34.94 844.574 34.94C843.934 34.94 843.474 35.4 843.474 36.04C843.474 36.68 843.934 37.14 844.574 37.14ZM849.37 37H850.77V24.28H858.37V37H859.77V23H849.37V37ZM867.074 37.14C869.734 37.14 871.474 35.4 871.474 32.34V31.66C871.474 28.58 869.754 26.86 867.074 26.86C864.414 26.86 862.674 28.6 862.674 31.66V32.34C862.674 35.42 864.394 37.14 867.074 37.14ZM867.074 35.94C865.274 35.94 864.034 34.7 864.034 32.34V31.66C864.034 29.28 865.254 28.06 867.074 28.06C868.874 28.06 870.114 29.3 870.114 31.66V32.34C870.114 34.72 868.894 35.94 867.074 35.94ZM874.27 37H876.11L881.11 28.5H881.15V37H882.47V27H880.63L875.63 35.5H875.59V27H874.27V37ZM889.472 37.14C891.832 37.14 893.172 35.8 893.472 34H892.112C891.812 35.18 891.052 35.94 889.572 35.94C887.892 35.94 886.632 34.68 886.632 32.24V31.56C886.632 29.3 887.872 28.06 889.572 28.06C891.052 28.06 891.812 28.82 892.112 29.8H893.472C893.172 28.2 891.832 26.86 889.472 26.86C886.992 26.86 885.272 28.58 885.272 31.56V32.24C885.272 35.46 886.952 37.14 889.472 37.14ZM895.97 37H897.29V32.4H899.09L902.37 37H903.97L900.15 31.76L903.57 27H902.01L899.09 31.2H897.29V27H895.97V37ZM913.205 37H914.525V28.2H917.865V27H909.865V28.2H913.205V37ZM923.383 37.14C926.043 37.14 927.783 35.4 927.783 32.34V31.66C927.783 28.58 926.063 26.86 923.383 26.86C920.723 26.86 918.983 28.6 918.983 31.66V32.34C918.983 35.42 920.703 37.14 923.383 37.14ZM923.383 35.94C921.583 35.94 920.343 34.7 920.343 32.34V31.66C920.343 29.28 921.563 28.06 923.383 28.06C925.183 28.06 926.423 29.3 926.423 31.66V32.34C926.423 34.72 925.203 35.94 923.383 35.94ZM930.579 37H934.779C937.099 37 938.179 35.92 938.179 34.14C938.179 33.08 937.599 32.24 936.519 31.82V31.78C937.319 31.38 937.779 30.62 937.779 29.74C937.779 28.08 936.699 27 934.379 27H930.579V37ZM936.419 29.76C936.419 30.76 935.839 31.34 934.279 31.34H931.899V28.2H934.279C935.839 28.2 936.419 28.78 936.419 29.76ZM936.819 34.12C936.819 35.22 936.239 35.8 934.679 35.8H931.899V32.46H934.679C936.239 32.46 936.819 33.04 936.819 34.12ZM943.57 37.14C944.99 37.14 946.23 36.48 947.03 35.3H947.07L947.23 37H948.27V30.4C948.27 28.08 947.05 26.86 944.47 26.86C942.05 26.86 940.77 28.14 940.67 29.6H942.03C942.13 28.72 942.85 28.1 944.47 28.1C946.23 28.1 946.95 28.82 946.95 30.4V31.14H944.37C941.51 31.14 940.27 32.34 940.27 34.24C940.27 36.04 941.37 37.14 943.57 37.14ZM943.67 35.9C942.27 35.9 941.63 35.26 941.63 34.24C941.63 33.04 942.41 32.26 944.47 32.26H946.95V32.8C946.95 34.62 945.59 35.9 943.67 35.9ZM951.575 41H952.895V35.6H952.935C953.635 36.62 954.715 37.14 956.155 37.14C958.455 37.14 960.175 35.42 960.175 32.34V31.66C960.175 28.54 958.495 26.86 956.155 26.86C954.715 26.86 953.695 27.36 952.815 28.5H952.775L952.615 27H951.575V41ZM955.855 35.94C954.135 35.94 952.895 34.7 952.895 32.34V31.66C952.895 29.26 954.095 28.06 955.855 28.06C957.575 28.06 958.815 29.3 958.815 31.66V32.34C958.815 34.74 957.615 35.94 955.855 35.94ZM965.581 37.14C967.001 37.14 968.241 36.48 969.041 35.3H969.081L969.241 37H970.281V30.4C970.281 28.08 969.061 26.86 966.481 26.86C964.061 26.86 962.781 28.14 962.681 29.6H964.041C964.141 28.72 964.861 28.1 966.481 28.1C968.241 28.1 968.961 28.82 968.961 30.4V31.14H966.381C963.521 31.14 962.281 32.34 962.281 34.24C962.281 36.04 963.381 37.14 965.581 37.14ZM965.681 35.9C964.281 35.9 963.641 35.26 963.641 34.24C963.641 33.04 964.421 32.26 966.481 32.26H968.961V32.8C968.961 34.62 967.601 35.9 965.681 35.9ZM973.387 40H974.587L975.987 35.3H974.387L973.387 40ZM988.503 37.14C991.123 37.14 992.883 35.38 992.883 32.44V31.76C992.883 28.8 991.143 27.06 988.743 27.06C987.263 27.06 986.083 27.68 985.403 28.8H985.363C985.523 26.92 985.983 25.78 986.963 25.14C988.243 24.32 990.083 24.82 992.083 24.08V22.86C989.523 23.66 988.023 23.1 986.363 24.08C984.523 25.18 984.083 27.62 984.083 30.66V31.74C984.083 35.44 985.783 37.14 988.503 37.14ZM988.503 35.94C986.683 35.94 985.443 34.7 985.443 32.44V31.76C985.443 29.46 986.643 28.26 988.503 28.26C990.303 28.26 991.523 29.48 991.523 31.76V32.44C991.523 34.72 990.303 35.94 988.503 35.94ZM995.677 41H996.997V35.6H997.037C997.737 36.62 998.817 37.14 1000.26 37.14C1002.56 37.14 1004.28 35.42 1004.28 32.34V31.66C1004.28 28.54 1002.6 26.86 1000.26 26.86C998.817 26.86 997.797 27.36 996.917 28.5H996.877L996.717 27H995.677V41ZM999.957 35.94C998.237 35.94 996.997 34.7 996.997 32.34V31.66C996.997 29.26 998.197 28.06 999.957 28.06C1001.68 28.06 1002.92 29.3 1002.92 31.66V32.34C1002.92 34.74 1001.72 35.94 999.957 35.94ZM1010.78 37.14C1013.02 37.14 1014.5 36.1 1014.98 34.2H1013.62C1013.16 35.36 1012.22 35.94 1010.78 35.94C1008.9 35.94 1007.84 34.66 1007.84 32.36H1015.08V31.76C1015.08 28.58 1013.36 26.86 1010.78 26.86C1008.22 26.86 1006.48 28.6 1006.48 31.66V32.34C1006.48 35.42 1008.2 37.14 1010.78 37.14ZM1010.78 28.06C1012.46 28.06 1013.6 29.1 1013.72 31.24H1007.84C1007.96 29.18 1009.08 28.06 1010.78 28.06ZM1017.88 37H1019.2V32.5H1024.76V37H1026.08V27H1024.76V31.3H1019.2V27H1017.88V37ZM1028.19 39.6H1029.47V37H1037.21V39.6H1038.49V35.8H1037.19V27H1030.39V30C1030.39 33.22 1030.15 34.46 1029.29 35.8H1028.19V39.6ZM1030.77 35.8V35.76C1031.49 34.24 1031.67 32.88 1031.67 30V28.2H1035.87V35.8H1030.77ZM1043.47 37.14C1044.89 37.14 1046.13 36.48 1046.93 35.3H1046.97L1047.13 37H1048.17V30.4C1048.17 28.08 1046.95 26.86 1044.37 26.86C1041.95 26.86 1040.67 28.14 1040.57 29.6H1041.93C1042.03 28.72 1042.75 28.1 1044.37 28.1C1046.13 28.1 1046.85 28.82 1046.85 30.4V31.14H1044.27C1041.41 31.14 1040.17 32.34 1040.17 34.24C1040.17 36.04 1041.27 37.14 1043.47 37.14ZM1043.57 35.9C1042.17 35.9 1041.53 35.26 1041.53 34.24C1041.53 33.04 1042.31 32.26 1044.37 32.26H1046.85V32.8C1046.85 34.62 1045.49 35.9 1043.57 35.9ZM1056.48 37H1058.32L1063.32 28.5H1063.36V37H1064.68V27H1062.84L1057.84 35.5H1057.8V27H1056.48V37ZM1066.78 37.14H1067.08C1070.06 37.14 1070.1 34.1 1070.1 29.8V28.2H1074.26V37H1075.58V27H1068.78V29.8C1068.78 33.6 1068.74 35.94 1067.08 35.94H1066.78V37.14ZM1078.98 37H1080.82L1085.82 28.5H1085.86V37H1087.18V27H1085.34L1080.34 35.5H1080.3V27H1078.98V37ZM1095.58 37H1096.9V28.2H1102.06V37H1103.38V27H1095.58V37ZM1106.77 41H1108.09V35.6H1108.13C1108.83 36.62 1109.91 37.14 1111.35 37.14C1113.65 37.14 1115.37 35.42 1115.37 32.34V31.66C1115.37 28.54 1113.69 26.86 1111.35 26.86C1109.91 26.86 1108.89 27.36 1108.01 28.5H1107.97L1107.81 27H1106.77V41ZM1111.05 35.94C1109.33 35.94 1108.09 34.7 1108.09 32.34V31.66C1108.09 29.26 1109.29 28.06 1111.05 28.06C1112.77 28.06 1114.01 29.3 1114.01 31.66V32.34C1114.01 34.74 1112.81 35.94 1111.05 35.94ZM1121.98 37.14C1124.64 37.14 1126.38 35.4 1126.38 32.34V31.66C1126.38 28.58 1124.66 26.86 1121.98 26.86C1119.32 26.86 1117.58 28.6 1117.58 31.66V32.34C1117.58 35.42 1119.3 37.14 1121.98 37.14ZM1121.98 35.94C1120.18 35.94 1118.94 34.7 1118.94 32.34V31.66C1118.94 29.28 1120.16 28.06 1121.98 28.06C1123.78 28.06 1125.02 29.3 1125.02 31.66V32.34C1125.02 34.72 1123.8 35.94 1121.98 35.94ZM1127.68 39.6H1128.96V37H1136.7V39.6H1137.98V35.8H1136.68V27H1129.88V30C1129.88 33.22 1129.64 34.46 1128.78 35.8H1127.68V39.6ZM1130.26 35.8V35.76C1130.98 34.24 1131.16 32.88 1131.16 30V28.2H1135.36V35.8H1130.26ZM1142.96 37.14C1144.38 37.14 1145.62 36.48 1146.42 35.3H1146.46L1146.62 37H1147.66V30.4C1147.66 28.08 1146.44 26.86 1143.86 26.86C1141.44 26.86 1140.16 28.14 1140.06 29.6H1141.42C1141.52 28.72 1142.24 28.1 1143.86 28.1C1145.62 28.1 1146.34 28.82 1146.34 30.4V31.14H1143.76C1140.9 31.14 1139.66 32.34 1139.66 34.24C1139.66 36.04 1140.76 37.14 1142.96 37.14ZM1143.06 35.9C1141.66 35.9 1141.02 35.26 1141.02 34.24C1141.02 33.04 1141.8 32.26 1143.86 32.26H1146.34V32.8C1146.34 34.62 1144.98 35.9 1143.06 35.9ZM1150.97 37H1155.17C1157.49 37 1158.57 35.92 1158.57 34.14C1158.57 33.08 1157.99 32.24 1156.91 31.82V31.78C1157.71 31.38 1158.17 30.62 1158.17 29.74C1158.17 28.08 1157.09 27 1154.77 27H1150.97V37ZM1156.81 29.76C1156.81 30.76 1156.23 31.34 1154.67 31.34H1152.29V28.2H1154.67C1156.23 28.2 1156.81 28.78 1156.81 29.76ZM1157.21 34.12C1157.21 35.22 1156.63 35.8 1155.07 35.8H1152.29V32.46H1155.07C1156.63 32.46 1157.21 33.04 1157.21 34.12ZM1169.24 39.6H1170.56V35.8H1169.06V27H1167.74V35.8H1162.68V27H1161.36V37H1169.24V39.6ZM1175.56 37.14C1176.98 37.14 1178.22 36.48 1179.02 35.3H1179.06L1179.22 37H1180.26V30.4C1180.26 28.08 1179.04 26.86 1176.46 26.86C1174.04 26.86 1172.76 28.14 1172.66 29.6H1174.02C1174.12 28.72 1174.84 28.1 1176.46 28.1C1178.22 28.1 1178.94 28.82 1178.94 30.4V31.14H1176.36C1173.5 31.14 1172.26 32.34 1172.26 34.24C1172.26 36.04 1173.36 37.14 1175.56 37.14ZM1175.66 35.9C1174.26 35.9 1173.62 35.26 1173.62 34.24C1173.62 33.04 1174.4 32.26 1176.46 32.26H1178.94V32.8C1178.94 34.62 1177.58 35.9 1175.66 35.9ZM1184.87 37.14C1185.51 37.14 1185.97 36.68 1185.97 36.04C1185.97 35.4 1185.51 34.94 1184.87 34.94C1184.23 34.94 1183.77 35.4 1183.77 36.04C1183.77 36.68 1184.23 37.14 1184.87 37.14ZM1190.86 37.14C1191.5 37.14 1191.96 36.68 1191.96 36.04C1191.96 35.4 1191.5 34.94 1190.86 34.94C1190.22 34.94 1189.76 35.4 1189.76 36.04C1189.76 36.68 1190.22 37.14 1190.86 37.14ZM1196.86 37.14C1197.5 37.14 1197.96 36.68 1197.96 36.04C1197.96 35.4 1197.5 34.94 1196.86 34.94C1196.22 34.94 1195.76 35.4 1195.76 36.04C1195.76 36.68 1196.22 37.14 1196.86 37.14ZM1201.66 37H1203.06V24.28H1210.66V37H1212.06V23H1201.66V37ZM1219.36 37.14C1222.02 37.14 1223.76 35.4 1223.76 32.34V31.66C1223.76 28.58 1222.04 26.86 1219.36 26.86C1216.7 26.86 1214.96 28.6 1214.96 31.66V32.34C1214.96 35.42 1216.68 37.14 1219.36 37.14ZM1219.36 35.94C1217.56 35.94 1216.32 34.7 1216.32 32.34V31.66C1216.32 29.28 1217.54 28.06 1219.36 28.06C1221.16 28.06 1222.4 29.3 1222.4 31.66V32.34C1222.4 34.72 1221.18 35.94 1219.36 35.94ZM1226.56 37H1228.4L1233.4 28.5H1233.44V37H1234.76V27H1232.92L1227.92 35.5H1227.88V27H1226.56V37ZM1241.76 37.14C1244.12 37.14 1245.46 35.8 1245.76 34H1244.4C1244.1 35.18 1243.34 35.94 1241.86 35.94C1240.18 35.94 1238.92 34.68 1238.92 32.24V31.56C1238.92 29.3 1240.16 28.06 1241.86 28.06C1243.34 28.06 1244.1 28.82 1244.4 29.8H1245.76C1245.46 28.2 1244.12 26.86 1241.76 26.86C1239.28 26.86 1237.56 28.58 1237.56 31.56V32.24C1237.56 35.46 1239.24 37.14 1241.76 37.14ZM1248.25 37H1249.57V32.4H1251.37L1254.65 37H1256.25L1252.43 31.76L1255.85 27H1254.29L1251.37 31.2H1249.57V27H1248.25V37ZM1265.49 37H1266.81V28.2H1270.15V27H1262.15V28.2H1265.49V37ZM1275.67 37.14C1278.33 37.14 1280.07 35.4 1280.07 32.34V31.66C1280.07 28.58 1278.35 26.86 1275.67 26.86C1273.01 26.86 1271.27 28.6 1271.27 31.66V32.34C1271.27 35.42 1272.99 37.14 1275.67 37.14ZM1275.67 35.94C1273.87 35.94 1272.63 34.7 1272.63 32.34V31.66C1272.63 29.28 1273.85 28.06 1275.67 28.06C1277.47 28.06 1278.71 29.3 1278.71 31.66V32.34C1278.71 34.72 1277.49 35.94 1275.67 35.94ZM1282.86 37H1287.06C1289.38 37 1290.46 35.92 1290.46 34.14C1290.46 33.08 1289.88 32.24 1288.8 31.82V31.78C1289.6 31.38 1290.06 30.62 1290.06 29.74C1290.06 28.08 1288.98 27 1286.66 27H1282.86V37ZM1288.7 29.76C1288.7 30.76 1288.12 31.34 1286.56 31.34H1284.18V28.2H1286.56C1288.12 28.2 1288.7 28.78 1288.7 29.76ZM1289.1 34.12C1289.1 35.22 1288.52 35.8 1286.96 35.8H1284.18V32.46H1286.96C1288.52 32.46 1289.1 33.04 1289.1 34.12ZM1295.85 37.14C1297.27 37.14 1298.51 36.48 1299.31 35.3H1299.35L1299.51 37H1300.55V30.4C1300.55 28.08 1299.33 26.86 1296.75 26.86C1294.33 26.86 1293.05 28.14 1292.95 29.6H1294.31C1294.41 28.72 1295.13 28.1 1296.75 28.1C1298.51 28.1 1299.23 28.82 1299.23 30.4V31.14H1296.65C1293.79 31.14 1292.55 32.34 1292.55 34.24C1292.55 36.04 1293.65 37.14 1295.85 37.14ZM1295.95 35.9C1294.55 35.9 1293.91 35.26 1293.91 34.24C1293.91 33.04 1294.69 32.26 1296.75 32.26H1299.23V32.8C1299.23 34.62 1297.87 35.9 1295.95 35.9ZM1303.86 41H1305.18V35.6H1305.22C1305.92 36.62 1307 37.14 1308.44 37.14C1310.74 37.14 1312.46 35.42 1312.46 32.34V31.66C1312.46 28.54 1310.78 26.86 1308.44 26.86C1307 26.86 1305.98 27.36 1305.1 28.5H1305.06L1304.9 27H1303.86V41ZM1308.14 35.94C1306.42 35.94 1305.18 34.7 1305.18 32.34V31.66C1305.18 29.26 1306.38 28.06 1308.14 28.06C1309.86 28.06 1311.1 29.3 1311.1 31.66V32.34C1311.1 34.74 1309.9 35.94 1308.14 35.94ZM1317.87 37.14C1319.29 37.14 1320.53 36.48 1321.33 35.3H1321.37L1321.53 37H1322.57V30.4C1322.57 28.08 1321.35 26.86 1318.77 26.86C1316.35 26.86 1315.07 28.14 1314.97 29.6H1316.33C1316.43 28.72 1317.15 28.1 1318.77 28.1C1320.53 28.1 1321.25 28.82 1321.25 30.4V31.14H1318.67C1315.81 31.14 1314.57 32.34 1314.57 34.24C1314.57 36.04 1315.67 37.14 1317.87 37.14ZM1317.97 35.9C1316.57 35.9 1315.93 35.26 1315.93 34.24C1315.93 33.04 1316.71 32.26 1318.77 32.26H1321.25V32.8C1321.25 34.62 1319.89 35.9 1317.97 35.9ZM1325.67 40H1326.87L1328.27 35.3H1326.67L1325.67 40ZM1340.79 37.14C1343.41 37.14 1345.17 35.38 1345.17 32.44V31.76C1345.17 28.8 1343.43 27.06 1341.03 27.06C1339.55 27.06 1338.37 27.68 1337.69 28.8H1337.65C1337.81 26.92 1338.27 25.78 1339.25 25.14C1340.53 24.32 1342.37 24.82 1344.37 24.08V22.86C1341.81 23.66 1340.31 23.1 1338.65 24.08C1336.81 25.18 1336.37 27.62 1336.37 30.66V31.74C1336.37 35.44 1338.07 37.14 1340.79 37.14ZM1340.79 35.94C1338.97 35.94 1337.73 34.7 1337.73 32.44V31.76C1337.73 29.46 1338.93 28.26 1340.79 28.26C1342.59 28.26 1343.81 29.48 1343.81 31.76V32.44C1343.81 34.72 1342.59 35.94 1340.79 35.94ZM1347.96 41H1349.28V35.6H1349.32C1350.02 36.62 1351.1 37.14 1352.54 37.14C1354.84 37.14 1356.56 35.42 1356.56 32.34V31.66C1356.56 28.54 1354.88 26.86 1352.54 26.86C1351.1 26.86 1350.08 27.36 1349.2 28.5H1349.16L1349 27H1347.96V41ZM1352.24 35.94C1350.52 35.94 1349.28 34.7 1349.28 32.34V31.66C1349.28 29.26 1350.48 28.06 1352.24 28.06C1353.96 28.06 1355.2 29.3 1355.2 31.66V32.34C1355.2 34.74 1354 35.94 1352.24 35.94ZM1363.07 37.14C1365.31 37.14 1366.79 36.1 1367.27 34.2H1365.91C1365.45 35.36 1364.51 35.94 1363.07 35.94C1361.19 35.94 1360.13 34.66 1360.13 32.36H1367.37V31.76C1367.37 28.58 1365.65 26.86 1363.07 26.86C1360.51 26.86 1358.77 28.6 1358.77 31.66V32.34C1358.77 35.42 1360.49 37.14 1363.07 37.14ZM1363.07 28.06C1364.75 28.06 1365.89 29.1 1366.01 31.24H1360.13C1360.25 29.18 1361.37 28.06 1363.07 28.06ZM1370.17 37H1371.49V32.5H1377.05V37H1378.37V27H1377.05V31.3H1371.49V27H1370.17V37ZM1380.47 39.6H1381.75V37H1389.49V39.6H1390.77V35.8H1389.47V27H1382.67V30C1382.67 33.22 1382.43 34.46 1381.57 35.8H1380.47V39.6ZM1383.05 35.8V35.76C1383.77 34.24 1383.95 32.88 1383.95 30V28.2H1388.15V35.8H1383.05ZM1395.76 37.14C1397.18 37.14 1398.42 36.48 1399.22 35.3H1399.26L1399.42 37H1400.46V30.4C1400.46 28.08 1399.24 26.86 1396.66 26.86C1394.24 26.86 1392.96 28.14 1392.86 29.6H1394.22C1394.32 28.72 1395.04 28.1 1396.66 28.1C1398.42 28.1 1399.14 28.82 1399.14 30.4V31.14H1396.56C1393.7 31.14 1392.46 32.34 1392.46 34.24C1392.46 36.04 1393.56 37.14 1395.76 37.14ZM1395.86 35.9C1394.46 35.9 1393.82 35.26 1393.82 34.24C1393.82 33.04 1394.6 32.26 1396.66 32.26H1399.14V32.8C1399.14 34.62 1397.78 35.9 1395.86 35.9ZM1408.76 37H1410.6L1415.6 28.5H1415.64V37H1416.96V27H1415.12L1410.12 35.5H1410.08V27H1408.76V37ZM1419.06 37.14H1419.36C1422.34 37.14 1422.38 34.1 1422.38 29.8V28.2H1426.54V37H1427.86V27H1421.06V29.8C1421.06 33.6 1421.02 35.94 1419.36 35.94H1419.06V37.14ZM1431.26 37H1433.1L1438.1 28.5H1438.14V37H1439.46V27H1437.62L1432.62 35.5H1432.58V27H1431.26V37ZM1447.86 37H1449.18V28.2H1454.34V37H1455.66V27H1447.86V37ZM1459.06 41H1460.38V35.6H1460.42C1461.12 36.62 1462.2 37.14 1463.64 37.14C1465.94 37.14 1467.66 35.42 1467.66 32.34V31.66C1467.66 28.54 1465.98 26.86 1463.64 26.86C1462.2 26.86 1461.18 27.36 1460.3 28.5H1460.26L1460.1 27H1459.06V41ZM1463.34 35.94C1461.62 35.94 1460.38 34.7 1460.38 32.34V31.66C1460.38 29.26 1461.58 28.06 1463.34 28.06C1465.06 28.06 1466.3 29.3 1466.3 31.66V32.34C1466.3 34.74 1465.1 35.94 1463.34 35.94ZM1474.26 37.14C1476.92 37.14 1478.66 35.4 1478.66 32.34V31.66C1478.66 28.58 1476.94 26.86 1474.26 26.86C1471.6 26.86 1469.86 28.6 1469.86 31.66V32.34C1469.86 35.42 1471.58 37.14 1474.26 37.14ZM1474.26 35.94C1472.46 35.94 1471.22 34.7 1471.22 32.34V31.66C1471.22 29.28 1472.44 28.06 1474.26 28.06C1476.06 28.06 1477.3 29.3 1477.3 31.66V32.34C1477.3 34.72 1476.08 35.94 1474.26 35.94ZM1479.96 39.6H1481.24V37H1488.98V39.6H1490.26V35.8H1488.96V27H1482.16V30C1482.16 33.22 1481.92 34.46 1481.06 35.8H1479.96V39.6ZM1482.54 35.8V35.76C1483.26 34.24 1483.44 32.88 1483.44 30V28.2H1487.64V35.8H1482.54ZM1495.25 37.14C1496.67 37.14 1497.91 36.48 1498.71 35.3H1498.75L1498.91 37H1499.95V30.4C1499.95 28.08 1498.73 26.86 1496.15 26.86C1493.73 26.86 1492.45 28.14 1492.35 29.6H1493.71C1493.81 28.72 1494.53 28.1 1496.15 28.1C1497.91 28.1 1498.63 28.82 1498.63 30.4V31.14H1496.05C1493.19 31.14 1491.95 32.34 1491.95 34.24C1491.95 36.04 1493.05 37.14 1495.25 37.14ZM1495.35 35.9C1493.95 35.9 1493.31 35.26 1493.31 34.24C1493.31 33.04 1494.09 32.26 1496.15 32.26H1498.63V32.8C1498.63 34.62 1497.27 35.9 1495.35 35.9ZM1503.25 37H1507.45C1509.77 37 1510.85 35.92 1510.85 34.14C1510.85 33.08 1510.27 32.24 1509.19 31.82V31.78C1509.99 31.38 1510.45 30.62 1510.45 29.74C1510.45 28.08 1509.37 27 1507.05 27H1503.25V37ZM1509.09 29.76C1509.09 30.76 1508.51 31.34 1506.95 31.34H1504.57V28.2H1506.95C1508.51 28.2 1509.09 28.78 1509.09 29.76ZM1509.49 34.12C1509.49 35.22 1508.91 35.8 1507.35 35.8H1504.57V32.46H1507.35C1508.91 32.46 1509.49 33.04 1509.49 34.12ZM1521.53 39.6H1522.85V35.8H1521.35V27H1520.03V35.8H1514.97V27H1513.65V37H1521.53V39.6ZM1527.85 37.14C1529.27 37.14 1530.51 36.48 1531.31 35.3H1531.35L1531.51 37H1532.55V30.4C1532.55 28.08 1531.33 26.86 1528.75 26.86C1526.33 26.86 1525.05 28.14 1524.95 29.6H1526.31C1526.41 28.72 1527.13 28.1 1528.75 28.1C1530.51 28.1 1531.23 28.82 1531.23 30.4V31.14H1528.65C1525.79 31.14 1524.55 32.34 1524.55 34.24C1524.55 36.04 1525.65 37.14 1527.85 37.14ZM1527.95 35.9C1526.55 35.9 1525.91 35.26 1525.91 34.24C1525.91 33.04 1526.69 32.26 1528.75 32.26H1531.23V32.8C1531.23 34.62 1529.87 35.9 1527.95 35.9ZM1537.15 37.14C1537.79 37.14 1538.25 36.68 1538.25 36.04C1538.25 35.4 1537.79 34.94 1537.15 34.94C1536.51 34.94 1536.05 35.4 1536.05 36.04C1536.05 36.68 1536.51 37.14 1537.15 37.14ZM1543.15 37.14C1543.79 37.14 1544.25 36.68 1544.25 36.04C1544.25 35.4 1543.79 34.94 1543.15 34.94C1542.51 34.94 1542.05 35.4 1542.05 36.04C1542.05 36.68 1542.51 37.14 1543.15 37.14ZM1549.14 37.14C1549.78 37.14 1550.24 36.68 1550.24 36.04C1550.24 35.4 1549.78 34.94 1549.14 34.94C1548.5 34.94 1548.04 35.4 1548.04 36.04C1548.04 36.68 1548.5 37.14 1549.14 37.14Z" fill="white"/>
</g>
<defs>
<clipPath id="clip0_135_2785">
<rect width="18" height="18" fill="white" transform="translate(150 21)"/>
</clipPath>
<clipPath id="clip1_135_2785">
<rect width="1110" height="24" fill="white" transform="translate(180 18)"/>
</clipPath>
</defs>
</svg>
